<svg width="29" height="30" viewBox="0 0 29 30" fill="none" xmlns="http://www.w3.org/2000/svg">
<path d="M8.91675 23.5C7.35841 23.5 6.09758 24.775 6.09758 26.3333C6.09758 27.8916 7.35841 29.1666 8.91675 29.1666C10.4751 29.1666 11.7501 27.8916 11.7501 26.3333C11.7501 24.775 10.4751 23.5 8.91675 23.5ZM0.416748 2.24998C0.416748 3.02915 1.05425 3.66665 1.83341 3.66665H3.25008L8.35008 14.4191L6.43758 17.8758C5.40341 19.7741 6.76341 22.0833 8.91675 22.0833H24.5001C25.2792 22.0833 25.9167 21.4458 25.9167 20.6666C25.9167 19.8875 25.2792 19.25 24.5001 19.25H8.91675L10.4751 16.4166H21.0292C22.0917 16.4166 23.0267 15.8358 23.5084 14.9575L28.5801 5.76331C28.6995 5.54858 28.7607 5.3064 28.7578 5.06073C28.7548 4.81505 28.6878 4.57441 28.5633 4.3626C28.4388 4.1508 28.2611 3.97517 28.0479 3.85311C27.8347 3.73104 27.5933 3.66677 27.3476 3.66665H6.38091L5.43175 1.64081C5.31789 1.399 5.1375 1.19462 4.9117 1.05161C4.6859 0.908605 4.42403 0.832884 4.15675 0.833315H1.83341C1.05425 0.833315 0.416748 1.47081 0.416748 2.24998ZM23.0834 23.5C21.5251 23.5 20.2642 24.775 20.2642 26.3333C20.2642 27.8916 21.5251 29.1666 23.0834 29.1666C24.6417 29.1666 25.9167 27.8916 25.9167 26.3333C25.9167 24.775 24.6417 23.5 23.0834 23.5Z" fill="#1B1B1B"/>
</svg>
